<svg id="Layer_1" xmlns="http://www.w3.org/2000/svg" width="80" height="21.631" viewBox="0 0 80 21.631">
  <g id="グループ_17" data-name="グループ 17" transform="translate(0 0)">
    <path id="パス_8" data-name="パス 8" d="M16.221,9.267H9.143a.321.321,0,0,0-.33.313v3.287a.323.323,0,0,0,.33.315H11.9v4.085a8.814,8.814,0,0,1-2.334.2c-2.023,0-4.847-.7-4.847-6.6s2.942-6.676,5.7-6.676a11.708,11.708,0,0,1,4.076.593.328.328,0,0,0,.4-.309l.79-3.176a.281.281,0,0,0-.126-.244C15.3.874,13.672.01,9.571.01,4.847.008,0,1.918,0,11.1S5.549,21.641,10.226,21.641a11.933,11.933,0,0,0,6.22-1.573.267.267,0,0,0,.108-.238V9.583a.321.321,0,0,0-.33-.313Z" transform="translate(0 -0.01)" fill="#0e0e0e"/>
    <path id="パス_9" data-name="パス 9" d="M174.586,3.844a.319.319,0,0,0-.327-.314h-3.985a.323.323,0,0,0-.33.314v7.294h-6.211V3.844a.321.321,0,0,0-.33-.314H159.42a.323.323,0,0,0-.33.314V23.591a.323.323,0,0,0,.33.317H163.4a.323.323,0,0,0,.33-.317V15.144h6.211l-.012,8.445a.323.323,0,0,0,.33.317h3.994a.325.325,0,0,0,.33-.317Z" transform="translate(-124.176 -2.707)" fill="#0e0e0e"/>
    <g id="グループ_16" data-name="グループ 16" transform="translate(17.608 1.295)">
      <path id="パス_10" data-name="パス 10" d="M84.69,8.146a2.57,2.57,0,1,0-2.57,2.6A2.581,2.581,0,0,0,84.69,8.146Z" transform="translate(-79.55 -5.55)" fill="#0e0e0e"/>
      <path id="パス_11" data-name="パス 11" d="M85.079,42.689V33.062a.331.331,0,0,0-.33-.332H80.776a.38.38,0,0,0-.346.372V46.893c0,.4.253.526.58.526h3.58c.393,0,.489-.192.489-.533v-4.2Z" transform="translate(-80.224 -27.517)" fill="#0e0e0e"/>
    </g>
    <path id="パス_12" data-name="パス 12" d="M246.9,32.862h-3.954a.332.332,0,0,0-.33.334V43.422a4.473,4.473,0,0,1-2.43.734c-1.424,0-1.805-.648-1.805-2.044V33.194a.332.332,0,0,0-.33-.334H234.04a.333.333,0,0,0-.33.334v9.592c0,4.146,2.31,5.161,5.49,5.161a9.277,9.277,0,0,0,4.712-1.44,8.518,8.518,0,0,0,.145.849.349.349,0,0,0,.29.18l2.553-.012a.333.333,0,0,0,.33-.332v-14a.334.334,0,0,0-.332-.334Z" transform="translate(-182.326 -26.321)" fill="#0e0e0e"/>
    <path id="パス_13" data-name="パス 13" d="M308.73,9.588a7.722,7.722,0,0,0-3.774.951V3.845a.321.321,0,0,0-.33-.315h-4a.323.323,0,0,0-.33.315V23.612a.323.323,0,0,0,.33.317H303.4a.337.337,0,0,0,.29-.168,6,6,0,0,0,.168-.911,7.38,7.38,0,0,0,4.728,1.467c3.631,0,5.715-1.747,5.715-7.84s-3.327-6.889-5.575-6.889Zm-1.56,11.136a4.914,4.914,0,0,1-2.3-.629V13.835a5.443,5.443,0,0,1,2.044-.629c1.424-.122,2.8.286,2.8,3.507,0,3.4-.62,4.065-2.537,4.012Z" transform="translate(-234.304 -2.707)" fill="#0e0e0e"/>
    <path id="パス_14" data-name="パス 14" d="M116.6,19.044h-2.988l0-3.949c0-.15-.077-.224-.25-.224h-4.073c-.159,0-.243.07-.243.222v4.08s-2.041.493-2.179.533a.33.33,0,0,0-.239.318v2.565a.33.33,0,0,0,.33.332h2.088V29.09c0,4.583,3.215,5.032,5.383,5.032a9.1,9.1,0,0,0,2.373-.391.308.308,0,0,0,.187-.3v-2.82a.331.331,0,0,0-.327-.332c-.175,0-.62.07-1.078.07-1.468,0-1.967-.683-1.967-1.567V22.921H116.6a.331.331,0,0,0,.33-.332V19.376a.33.33,0,0,0-.33-.332Z" transform="translate(-83.115 -12.538)" fill="#0e0e0e"/>
  </g>
</svg>
