<svg id="vimeo_logo" xmlns="http://www.w3.org/2000/svg" width="84" height="23.748" viewBox="0 0 84 23.748">
  <path id="パス_15" data-name="パス 15" d="M18.829,76.658q-.127,2.752-3.842,7.535-3.842,5-6.5,5-1.646,0-2.786-3.042L4.18,80.57q-.846-3.041-1.815-3.042a5.837,5.837,0,0,0-1.479.887L0,77.271q1.395-1.225,2.749-2.452A6.236,6.236,0,0,1,5.54,73.126q2.2-.211,2.707,3.007.549,3.474.762,4.318.635,2.882,1.4,2.881.592,0,1.776-1.869a7.376,7.376,0,0,0,1.269-2.846Q13.618,77,12.181,77a3.528,3.528,0,0,0-1.394.309q1.389-4.55,5.306-4.422,2.9.086,2.737,3.768Z" transform="translate(0 -65.519)" fill="#17272e"/>
  <path id="パス_16" data-name="パス 16" d="M183.57,17.109a14.239,14.239,0,0,1-3.257,4.047,8.72,8.72,0,0,1-5.668,2.445,2.459,2.459,0,0,1-2.01-.843,3.158,3.158,0,0,1-.655-2.192,19.855,19.855,0,0,1,.867-4.3q.824-2.909.826-3.12,0-1.1-.762-1.1a4.693,4.693,0,0,0-1.439.885L170.5,11.8l2.707-2.446a6.106,6.106,0,0,1,2.708-1.688,2.072,2.072,0,0,1,2.051.82,3.524,3.524,0,0,1,.487,2.458q-.551,2.564-1.186,6.514-.043,1.809,1.311,1.807a4.659,4.659,0,0,0,2.115-1.249,17.647,17.647,0,0,0,2.073-1.957l.8,1.054Zm-3.68-15a2.967,2.967,0,0,1-1.058,2.016,3.789,3.789,0,0,1-2.707,1.091q-2.411,0-2.326-2.1a2.93,2.93,0,0,1,1.289-2.1A4.312,4.312,0,0,1,177.858.01,1.873,1.873,0,0,1,179.339.7a1.975,1.975,0,0,1,.55,1.405Z" transform="translate(-153.169 -0.01)" fill="#17272e"/>
  <path id="パス_17" data-name="パス 17" d="M281.3,84.663a14.271,14.271,0,0,1-3.257,4.057,8.706,8.706,0,0,1-5.668,2.451c-1.888,0-2.722-1.014-2.666-3.044a15.38,15.38,0,0,1,.528-3.255,15.381,15.381,0,0,0,.529-2.959q.043-1.606-.977-1.607-1.1,0-2.631,2.623a11.688,11.688,0,0,0-1.741,5.329,6.256,6.256,0,0,0,.356,2.792q-2.952.086-4.133-.973a3.726,3.726,0,0,1-.971-3.088,11.418,11.418,0,0,1,.415-2.707,10.842,10.842,0,0,0,.415-2.412q.086-1.565-1.143-1.565-1.06,0-2.288,2.412a12.287,12.287,0,0,0-1.355,5.033,8.791,8.791,0,0,0,.3,3.3q-2.9.086-4.124-1.224a4.5,4.5,0,0,1-.926-3.331,23.763,23.763,0,0,1,.388-3.058,23.792,23.792,0,0,0,.39-3.058q.084-.759-.38-.759a4.716,4.716,0,0,0-1.439.856l-1.015-1.142q.211-.167,2.666-2.452,1.776-1.649,2.411-1.691a1.867,1.867,0,0,1,1.776.909,4,4,0,0,1,.677,2.306,3.786,3.786,0,0,1-.084.8,7.815,7.815,0,0,1,1.481-1.693,7.521,7.521,0,0,1,4.356-1.9,3.178,3.178,0,0,1,2.962.973,4.126,4.126,0,0,1,.676,2.666c.2-.168.409-.352.635-.55a11.168,11.168,0,0,1,1.9-1.818,6.285,6.285,0,0,1,3.257-1.27,3.126,3.126,0,0,1,2.918.969,3.783,3.783,0,0,1,.677,2.654,19.558,19.558,0,0,1-.571,3.435,22.047,22.047,0,0,0-.529,2.591,2.278,2.278,0,0,0,.169,1.223c.141.225.478.337,1.015.337a4.656,4.656,0,0,0,2.115-1.252,17.667,17.667,0,0,0,2.073-1.962l.8,1.056Z" transform="translate(-224.535 -67.582)" fill="#17272e"/>
  <path id="パス_18" data-name="パス 18" d="M538.544,86.071a12.944,12.944,0,0,1-4.822,4.054,18.065,18.065,0,0,1-9.094,2.576q-3.426,0-4.908-2.283a6.258,6.258,0,0,1-1.015-3.722,9.462,9.462,0,0,1,3.046-6.513,10.521,10.521,0,0,1,7.782-3.383q4.145,0,4.4,3.376.168,2.151-2.369,4.431a12.894,12.894,0,0,1-6.811,3.164,2.63,2.63,0,0,0,2.284,1.054,16.906,16.906,0,0,0,6.641-1.549,17.713,17.713,0,0,0,4.06-2.261l.8,1.055Zm-9.6-4.416q.041-1.135-.93-1.136a3.5,3.5,0,0,0-2.576,1.747,5.908,5.908,0,0,0-1.351,3.345,2.3,2.3,0,0,0,0,.548,9.525,9.525,0,0,0,3.589-2.314,4.08,4.08,0,0,0,1.266-2.189Z" transform="translate(-466.036 -69.033)" fill="#17272e"/>
  <path id="パス_19" data-name="パス 19" d="M684.193,81.153a10.052,10.052,0,0,1-2.877,6.716,8.931,8.931,0,0,1-6.726,2.83,6.128,6.128,0,0,1-5.075-2.155,6.88,6.88,0,0,1-1.4-4.012,8.789,8.789,0,0,1,2.623-6.674A9.868,9.868,0,0,1,678.4,74.48a5.307,5.307,0,0,1,4.484,1.985,6.811,6.811,0,0,1,1.311,4.688Zm-4.78-.159a5.327,5.327,0,0,0-.317-2.1c-.24-.635-.586-.954-1.036-.954a4.092,4.092,0,0,0-3.553,2.331,8.18,8.18,0,0,0-1.27,4.068,3.633,3.633,0,0,0,.38,1.865,1.434,1.434,0,0,0,1.311.932q1.9,0,3.257-2.246a8,8,0,0,0,1.226-3.9Z" transform="translate(-600.202 -66.95)" fill="#17272e"/>
</svg>
